# xmcd
#
# Track frame offsets: 
#        180
#        8666
#        16437
#        26359
#        36868
#        48430
#        58487
#        71023
#        79428
#        90506
#        100675
#        113558
#        124938
#        133489
#        144000
#        154270
#        166294
#        174913
#        183226
#        193123
#
# Disc length: 2692 seconds
#
# Revision: 0
# Processed by: cddbd v1.5.1PL2 Copyright (c) Steve Scherf et al.
# Submitted via: ExactAudioCopy v0.95a4
#
DISCID=0b0a8214
DTITLE=Johnny Cash and the Tennesee Two - Showtime \\ Orginal Golden H
DTITLE=its Volume 3
DYEAR=1999
DGENRE=Country
TTITLE0=Guess Things Happen That Way
TTITLE1=Come In Stranger
TTITLE2=Rock Island Line
TTITLE3=There You Go
TTITLE4=Big River
TTITLE5=Ballad of a Teenage Queen
TTITLE6=I Walk the Line
TTITLE7=The Wreck of the Old 97
TTITLE8=Cry, Cry, Cry
TTITLE9=Hey Porter
TTITLE10=Folsom Prison Blues
TTITLE11=Oh Lonesome Me
TTITLE12=Country Boy
TTITLE13=You Win Again
TTITLE14=Straight A's In Love
TTITLE15=Doin' My Time
TTITLE16=I Forget to Remember to Forget
TTITLE17=Sugartime
TTITLE18=Story of a Broken Heart
TTITLE19=Katy Too
EXTD=
EXTT0=
EXTT1=
EXTT2=
EXTT3=
EXTT4=
EXTT5=
EXTT6=
EXTT7=
EXTT8=
EXTT9=
EXTT10=
EXTT11=
EXTT12=
EXTT13=
EXTT14=
EXTT15=
EXTT16=
EXTT17=
EXTT18=
EXTT19=
PLAYORDER=
